# xmcd
#
# Track frame offsets:
#	150
#	25884
#	54143
#	80036
#	105681
#	138906
#	168524
#	194992
#	220678
#	247253
#	277755
#	299963
#	327089
#
# Disc length: 4660 seconds
#
# Revision: 1
# Processed by: cddbd v1.5.2PL0 Copyright (c) Steve Scherf et al.
# Submitted via: EasyCDDAExtractor 16.0.9.1
#
DISCID=c912320d
DTITLE=Hoàng Oanh - TNCD515: Sao Chưa Thấy Hồi Âm?
DYEAR=2013
DGENRE=Country
TTITLE0=Hoàng Oanh - Sao Chưa Thấy Hồi Âm? "From PBN 78" (Châu Kỳ)
TTITLE1=Hoàng Oanh - Chiều Tàn "From PBN 88" (Lam Phương)
TTITLE2=Hoàng Oanh - Hương Bình Lưu Luyến "From PBN 77" (Dương Thiệu Tước)
TTITLE3=Hoàng Oanh - Tình Yêu Trả Lại Trăng Sao "From PBN 70" (Lê Dinh)
TTITLE4=Hoàng Oanh and Mai Thiên Vân - Những Đồi Hoa Sim "From PBN 96" (Nhạc: Dũ
TTITLE4=ng Chinh, Thơ: Hữu Loan)
TTITLE5=Hoàng Oanh, Hương Lan and Như Quỳnh - Liên Khúc: Nỗi Buồn Hoa Phượng and L
TTITLE5=ưu Bút Ngày Xanh "From PBN 83" (Thanh Sơn)
TTITLE6=Hoàng Oanh - Mong Chờ "From PBN 83" (Xuân Tiên)
TTITLE7=Hoàng Oanh and Phương Dung - Về Đâu Mái Tóc Người Thương "From PBN 84" (
TTITLE7=Hoài Linh)
TTITLE8=Hoàng Oanh and Hà Thanh - Thương Về Xứ Huế "From PBN 91" (Minh Kỳ)
TTITLE9=Hoàng Oanh and Trung Chỉnh - Liên Khúc: Ai Lên Xứ Hoa Đào and Bài Thơ Hoa 
TTITLE9=Đào "From PBN 76" (Hoàng Nguyên)
TTITLE10=Hoàng Oanh - Người Yêu Của Lính "From PBN 90" (Trần Thiện Thanh)
TTITLE11=Hoàng Oanh - Một Người Đi "From PBN 95" (Mai Châu)
TTITLE12=Hoàng Oanh, Khanh Ly, Hương Lan and Phương Hồng Quế - Xuân Miền Nam "Fr
TTITLE12=om PBN 85" (Văn Phụng)
EXTD=
EXTT0=
EXTT1=
EXTT2=
EXTT3=
EXTT4=
EXTT5=
EXTT6=
EXTT7=
EXTT8=
EXTT9=
EXTT10=
EXTT11=
EXTT12=
PLAYORDER=
